{
  "accessors": [
    {
      "bufferView": 3,
      "componentType": 5126,
      "count": 1160,
      "max": [
        20.563018798828125,
        45.73771667480469,
        36.36476135253906
      ],
      "min": [
        -17.737777709960938,
        1.717681884765625,
        -33.94537353515625
      ],
      "type": "VEC3"
    },
    {
      "bufferView": 3,
      "byteOffset": 13920,
      "componentType": 5126,
      "count": 1160,
      "max": [
        0.999906599521637,
        0.9994075298309326,
        0.9996871948242188
      ],
      "min": [
        -0.9974133968353271,
        -0.9999446868896484,
        -0.9798594117164612
      ],
      "type": "VEC3"
    },
    {
      "bufferView": 2,
      "componentType": 5126,
      "count": 1160,
      "max": [
        0.9532294869422913,
        0.9998862743377686
      ],
      "min": [
        0.00011361903307260945,
        0.00011361102224327624
      ],
      "type": "VEC2"
    },
    {
      "bufferView": 1,
      "componentType": 5125,
      "count": 6384,
      "type": "SCALAR"
    },
    {
      "bufferView": 3,
      "byteOffset": 27840,
      "componentType": 5126,
      "count": 170,
      "max": [
        1.2769088745117188,
        33.10700988769531,
        43.48005676269531
      ],
      "min": [
        -22.66204833984375,
        19.109928131103516,
        13.417132377624512
      ],
      "type": "VEC3"
    },
    {
      "bufferView": 3,
      "byteOffset": 29880,
      "componentType": 5126,
      "count": 170,
      "max": [
        -0.256471186876297,
        0.7009329199790955,
        0.8076358437538147
      ],
      "min": [
        -0.9274047017097473,
        -0.5291865468025208,
        0.010974643751978874
      ],
      "type": "VEC3"
    },
    {
      "bufferView": 2,
      "byteOffset": 9280,
      "componentType": 5126,
      "count": 170,
      "max": [
        0.5125184059143066,
        0.7462789416313171
      ],
      "min": [
        0.022946864366531372,
        -0.04838833212852478
      ],
      "type": "VEC2"
    },
    {
      "bufferView": 1,
      "byteOffset": 25536,
      "componentType": 5125,
      "count": 816,
      "type": "SCALAR"
    },
    {
      "bufferView": 5,
      "componentType": 5126,
      "count": 3,
      "max": [
        1.0,
        0.0,
        0.0,
        0.0,
        0.0,
        1.0,
        0.0,
        0.0,
        0.0,
        0.0,
        1.0,
        0.0,
        4.440892098500626e-16,
        0.0,
        4.0,
        1.0
      ],
      "min": [
        1.0,
        0.0,
        0.0,
        0.0,
        0.0,
        1.0,
        0.0,
        0.0,
        0.0,
        0.0,
        1.0,
        0.0,
        0.0,
        -25.0,
        0.0,
        1.0
      ],
      "type": "MAT4"
    },
    {
      "bufferView": 0,
      "componentType": 5123,
      "count": 1160,
      "type": "VEC4"
    },
    {
      "bufferView": 4,
      "componentType": 5126,
      "count": 1160,
      "max": [
        1.0,
        0.0,
        0.0,
        0.0
      ],
      "min": [
        1.0,
        0.0,
        0.0,
        0.0
      ],
      "type": "VEC4"
    },
    {
      "bufferView": 0,
      "byteOffset": 9280,
      "componentType": 5123,
      "count": 170,
      "type": "VEC4"
    },
    {
      "bufferView": 4,
      "byteOffset": 18560,
      "componentType": 5126,
      "count": 170,
      "max": [
        1.0,
        0.0,
        0.0,
        0.0
      ],
      "min": [
        1.0,
        0.0,
        0.0,
        0.0
      ],
      "type": "VEC4"
    },
    {
      "bufferView": 6,
      "componentType": 5126,
      "count": 667,
      "max": [
        22.200000762939453
      ],
      "min": [
        0.0
      ],
      "type": "SCALAR"
    },
    {
      "bufferView": 7,
      "componentType": 5126,
      "count": 667,
      "max": [
        13.989461898803711,
        35.0,
        -4.0
      ],
      "min": [
        -14.0,
        25.031160354614258,
        -4.0
      ],
      "type": "VEC3"
    },
    {
      "bufferView": 6,
      "byteOffset": 2668,
      "componentType": 5126,
      "count": 667,
      "max": [
        22.200000762939453
      ],
      "min": [
        0.0
      ],
      "type": "SCALAR"
    },
    {
      "bufferView": 8,
      "componentType": 5126,
      "count": 667,
      "max": [
        0.0,
        -0.0,
        0.1736481785774231,
        0.999986469745636
      ],
      "min": [
        0.0,
        -0.0,
        -0.13043655455112457,
        0.9848077297210693
      ],
      "type": "VEC4"
    }
  ],
  "animations": [
    {
      "channels": [
        {
          "sampler": 0,
          "target": {
            "node": 10,
            "path": "translation"
          }
        },
        {
          "sampler": 1,
          "target": {
            "node": 10,
            "path": "rotation"
          }
        }
      ],
      "name": "Take 001",
      "samplers": [
        {
          "input": 13,
          "interpolation": "LINEAR",
          "output": 14
        },
        {
          "input": 15,
          "interpolation": "LINEAR",
          "output": 16
        }
      ]
    }
  ],
  "asset": {
    "extras": {
      "author": "Zhuier (https://sketchfab.com/Zhuier)",
      "license": "CC-BY-4.0 (http://creativecommons.org/licenses/by/4.0/)",
      "source": "https://sketchfab.com/3d-models/maxwell-the-cat-with-bones-animation-4175776146ba4550a8dd643363b7b0aa",
      "title": "Maxwell The cat with bones animation"
    },
    "generator": "Sketchfab-16.59.0",
    "version": "2.0"
  },
  "bufferViews": [
    {
      "buffer": 0,
      "byteLength": 10640,
      "byteStride": 8,
      "name": "shortBufferViews",
      "target": 34962
    },
    {
      "buffer": 0,
      "byteLength": 28800,
      "byteOffset": 10640,
      "name": "floatBufferViews",
      "target": 34963
    },
    {
      "buffer": 0,
      "byteLength": 10640,
      "byteOffset": 39440,
      "byteStride": 8,
      "name": "floatBufferViews",
      "target": 34962
    },
    {
      "buffer": 0,
      "byteLength": 31920,
      "byteOffset": 50080,
      "byteStride": 12,
      "name": "floatBufferViews",
      "target": 34962
    },
    {
      "buffer": 0,
      "byteLength": 21280,
      "byteOffset": 82000,
      "byteStride": 16,
      "name": "floatBufferViews",
      "target": 34962
    },
    {
      "buffer": 0,
      "byteLength": 192,
      "byteOffset": 103280,
      "name": "floatBufferViews"
    },
    {
      "buffer": 0,
      "byteLength": 5336,
      "byteOffset": 103472,
      "name": "floatBufferViews"
    },
    {
      "buffer": 0,
      "byteLength": 8004,
      "byteOffset": 108808,
      "byteStride": 12,
      "name": "floatBufferViews"
    },
    {
      "buffer": 0,
      "byteLength": 10672,
      "byteOffset": 116812,
      "byteStride": 16,
      "name": "floatBufferViews"
    }
  ],
  "buffers": [
    {
      "byteLength": 127484,
      "uri": "scene.bin"
    }
  ],
  "extensionsUsed": [
    "KHR_materials_specular"
  ],
  "images": [
    {
      "uri": "textures/body_baseColor.png"
    },
    {
      "uri": "textures/whiskers.002_baseColor.png"
    }
  ],
  "materials": [
    {
      "doubleSided": true,
      "extensions": {
        "KHR_materials_specular": {
          "specularColorFactor": [
            1.0,
            1.0,
            1.0
          ],
          "specularFactor": 0.0
        }
      },
      "name": "body",
      "pbrMetallicRoughness": {
        "baseColorTexture": {
          "index": 0
        },
        "metallicFactor": 0.0
      }
    },
    {
      "alphaCutoff": 0.5409540295741854,
      "alphaMode": "MASK",
      "doubleSided": true,
      "extensions": {
        "KHR_materials_specular": {
          "specularColorFactor": [
            1.0,
            1.0,
            1.0
          ],
          "specularFactor": 0.0
        }
      },
      "name": "whiskers.002",
      "pbrMetallicRoughness": {
        "baseColorTexture": {
          "index": 1
        },
        "metallicFactor": 0.0,
        "roughnessFactor": 0.9552786404500042
      }
    }
  ],
  "meshes": [
    {
      "name": "choucat_body_0",
      "primitives": [
        {
          "attributes": {
            "JOINTS_0": 9,
            "NORMAL": 1,
            "POSITION": 0,
            "TEXCOORD_0": 2,
            "WEIGHTS_0": 10
          },
          "indices": 3,
          "material": 0,
          "mode": 4
        }
      ]
    },
    {
      "name": "choucat_whiskers.002_0",
      "primitives": [
        {
          "attributes": {
            "JOINTS_0": 11,
            "NORMAL": 5,
            "POSITION": 4,
            "TEXCOORD_0": 6,
            "WEIGHTS_0": 12
          },
          "indices": 7,
          "material": 1,
          "mode": 4
        }
      ]
    }
  ],
  "nodes": [
    {
      "children": [
        1
      ],
      "matrix": [
        1.0,
        0.0,
        0.0,
        0.0,
        0.0,
        2.220446049250313e-16,
        -1.0,
        0.0,
        0.0,
        1.0,
        2.220446049250313e-16,
        0.0,
        0.0,
        0.0,
        0.0,
        1.0
      ],
      "name": "Sketchfab_model"
    },
    {
      "children": [
        2
      ],
      "matrix": [
        0.009999999776482582,
        0.0,
        0.0,
        0.0,
        0.0,
        0.0,
        0.009999999776482582,
        0.0,
        0.0,
        -0.009999999776482582,
        0.0,
        0.0,
        0.0,
        0.0,
        0.0,
        1.0
      ],
      "name": "bb98b272cebc4af68c489a5355d252d2.fbx"
    },
    {
      "children": [
        3
      ],
      "name": "Object_2"
    },
    {
      "children": [
        4
      ],
      "name": "RootNode"
    },
    {
      "children": [
        5
      ],
      "name": "smellCat"
    },
    {
      "children": [
        6,
        7,
        8,
        11
      ],
      "name": "Object_5"
    },
    {
      "children": [
        9
      ],
      "name": "_rootJoint"
    },
    {
      "mesh": 0,
      "name": "Object_7",
      "skin": 0
    },
    {
      "mesh": 1,
      "name": "Object_8",
      "skin": 0
    },
    {
      "children": [
        10
      ],
      "name": "sk_smellCat_00"
    },
    {
      "name": "sk_smellCat1_01",
      "rotation": [
        0.0,
        -0.0,
        -0.1301230788230896,
        0.9914978742599487
      ],
      "translation": [
        13.952652931213379,
        34.94963073730469,
        -4.0
      ]
    },
    {
      "name": "choucat"
    }
  ],
  "samplers": [
    {
      "magFilter": 9729,
      "minFilter": 9987,
      "wrapS": 10497,
      "wrapT": 10497
    }
  ],
  "scene": 0,
  "scenes": [
    {
      "name": "Sketchfab_Scene",
      "nodes": [
        0
      ]
    }
  ],
  "skins": [
    {
      "inverseBindMatrices": 8,
      "joints": [
        6,
        9,
        10
      ],
      "skeleton": 6
    }
  ],
  "textures": [
    {
      "sampler": 0,
      "source": 0
    },
    {
      "sampler": 0,
      "source": 1
    }
  ]
}
