{
  "accessors": [
    {
      "bufferView": 2,
      "componentType": 5126,
      "count": 579,
      "max": [
        0.0859379991889,
        0.2131350040435791,
        0.7960209846496582
      ],
      "min": [
        -0.0859379991889,
        -0.04809600114822388,
        0.5373539924621582
      ],
      "type": "VEC3"
    },
    {
      "bufferView": 2,
      "byteOffset": 6948,
      "componentType": 5126,
      "count": 579,
      "max": [
        0.9970667362213135,
        0.9988036751747131,
        0.998904287815094
      ],
      "min": [
        -0.9970775246620178,
        -0.997349202632904,
        -0.9738752841949463
      ],
      "type": "VEC3"
    },
    {
      "bufferView": 1,
      "componentType": 5126,
      "count": 579,
      "max": [
        0.9747009873390198,
        0.940093994140625
      ],
      "min": [
        0.02220200002193451,
        0.01109302043914795
      ],
      "type": "VEC2"
    },
    {
      "bufferView": 1,
      "byteOffset": 4632,
      "componentType": 5126,
      "count": 579,
      "max": [
        1.0,
        0.0
      ],
      "min": [
        1.0,
        0.0
      ],
      "type": "VEC2"
    },
    {
      "bufferView": 0,
      "componentType": 5125,
      "count": 2940,
      "type": "SCALAR"
    },
    {
      "bufferView": 2,
      "byteOffset": 13896,
      "componentType": 5126,
      "count": 2053,
      "max": [
        0.2095949947834015,
        0.424439013004303,
        0.8425289988517761
      ],
      "min": [
        -0.2095949947834015,
        -0.3126220107078552,
        -0.6556400060653687
      ],
      "type": "VEC3"
    },
    {
      "bufferView": 2,
      "byteOffset": 38532,
      "componentType": 5126,
      "count": 2053,
      "max": [
        0.9999315738677979,
        0.9999814033508301,
        0.9990626573562622
      ],
      "min": [
        -0.9999315738677979,
        -0.9998452067375183,
        -0.9952157735824585
      ],
      "type": "VEC3"
    },
    {
      "bufferView": 1,
      "byteOffset": 9264,
      "componentType": 5126,
      "count": 2053,
      "max": [
        0.9781039953231812,
        0.9837949872016907
      ],
      "min": [
        0.02239999920129776,
        0.007903993129730225
      ],
      "type": "VEC2"
    },
    {
      "bufferView": 1,
      "byteOffset": 25688,
      "componentType": 5126,
      "count": 2053,
      "max": [
        -0.3892520070075989,
        1.5479129552841187
      ],
      "min": [
        -0.7216029763221741,
        0.5479130148887634
      ],
      "type": "VEC2"
    },
    {
      "bufferView": 0,
      "byteOffset": 11760,
      "componentType": 5125,
      "count": 10854,
      "type": "SCALAR"
    }
  ],
  "asset": {
    "extras": {
      "author": "WildMesh 3D (https://sketchfab.com/WildMesh_3D)",
      "license": "CC-BY-4.0 (http://creativecommons.org/licenses/by/4.0/)",
      "source": "https://sketchfab.com/3d-models/realistic-pig-porco-3d-model-72834b8b47c7438c827cd0f2258ae656",
      "title": "Realistic Pig / Porco 3D Model"
    },
    "generator": "Sketchfab-16.95.0",
    "version": "2.0"
  },
  "bufferViews": [
    {
      "buffer": 0,
      "byteLength": 55176,
      "name": "floatBufferViews",
      "target": 34963
    },
    {
      "buffer": 0,
      "byteLength": 42112,
      "byteOffset": 55176,
      "byteStride": 8,
      "name": "floatBufferViews",
      "target": 34962
    },
    {
      "buffer": 0,
      "byteLength": 63168,
      "byteOffset": 97288,
      "byteStride": 12,
      "name": "floatBufferViews",
      "target": 34962
    }
  ],
  "buffers": [
    {
      "byteLength": 160456,
      "uri": "scene.bin"
    }
  ],
  "extensionsUsed": [
    "KHR_materials_specular"
  ],
  "images": [
    {
      "uri": "textures/Material.001_baseColor.png"
    },
    {
      "uri": "textures/Material_baseColor.png"
    }
  ],
  "materials": [
    {
      "doubleSided": true,
      "extensions": {
        "KHR_materials_specular": {
          "specularColorFactor": [
            1.0,
            1.0,
            1.0
          ],
          "specularFactor": 0.0
        }
      },
      "name": "Material.001",
      "pbrMetallicRoughness": {
        "baseColorTexture": {
          "index": 0
        },
        "metallicFactor": 0.0,
        "roughnessFactor": 0.0
      }
    },
    {
      "doubleSided": true,
      "extensions": {
        "KHR_materials_specular": {
          "specularColorFactor": [
            1.0,
            1.0,
            1.0
          ],
          "specularFactor": 0.0
        }
      },
      "name": "Material",
      "pbrMetallicRoughness": {
        "baseColorTexture": {
          "index": 1
        },
        "metallicFactor": 0.0,
        "roughnessFactor": 0.0
      }
    }
  ],
  "meshes": [
    {
      "name": "Object_0",
      "primitives": [
        {
          "attributes": {
            "NORMAL": 1,
            "POSITION": 0,
            "TEXCOORD_0": 2,
            "TEXCOORD_1": 3
          },
          "indices": 4,
          "material": 0,
          "mode": 4
        }
      ]
    },
    {
      "name": "Object_1",
      "primitives": [
        {
          "attributes": {
            "NORMAL": 6,
            "POSITION": 5,
            "TEXCOORD_0": 7,
            "TEXCOORD_1": 8
          },
          "indices": 9,
          "material": 1,
          "mode": 4
        }
      ]
    }
  ],
  "nodes": [
    {
      "children": [
        1
      ],
      "matrix": [
        1.0,
        0.0,
        0.0,
        0.0,
        0.0,
        2.220446049250313e-16,
        -1.0,
        0.0,
        0.0,
        1.0,
        2.220446049250313e-16,
        0.0,
        0.0,
        0.0,
        0.0,
        1.0
      ],
      "name": "Sketchfab_model"
    },
    {
      "children": [
        2
      ],
      "name": "root"
    },
    {
      "children": [
        3,
        5
      ],
      "matrix": [
        1.0,
        0.0,
        0.0,
        0.0,
        0.0,
        2.220446049250313e-16,
        1.0,
        0.0,
        0.0,
        -1.0,
        2.220446049250313e-16,
        0.0,
        0.0,
        0.0,
        0.0,
        1.0
      ],
      "name": "GLTF_SceneRootNode"
    },
    {
      "children": [
        4
      ],
      "matrix": [
        1.0,
        0.0,
        0.0,
        0.0,
        0.0,
        1.0,
        0.0,
        0.0,
        0.0,
        0.0,
        1.0,
        0.0,
        0.0,
        0.3067944347858429,
        0.0,
        1.0
      ],
      "name": "sm_2_0_0_0"
    },
    {
      "mesh": 0,
      "name": "Object_4"
    },
    {
      "children": [
        6
      ],
      "matrix": [
        1.0,
        0.0,
        0.0,
        0.0,
        0.0,
        1.0,
        0.0,
        0.0,
        0.0,
        0.0,
        1.0,
        0.0,
        0.0,
        0.3067944347858429,
        0.0,
        1.0
      ],
      "name": "sm_1_0_0_1"
    },
    {
      "mesh": 1,
      "name": "Object_6"
    }
  ],
  "samplers": [
    {
      "magFilter": 9729,
      "minFilter": 9987,
      "wrapS": 10497,
      "wrapT": 10497
    }
  ],
  "scene": 0,
  "scenes": [
    {
      "name": "Sketchfab_Scene",
      "nodes": [
        0
      ]
    }
  ],
  "textures": [
    {
      "sampler": 0,
      "source": 0
    },
    {
      "sampler": 0,
      "source": 1
    }
  ]
}
